<?xml version="1.0" encoding="UTF-8"?>
<svg xmlns="http://www.w3.org/2000/svg" xmlns:xlink="http://www.w3.org/1999/xlink" width="96px" height="96px" viewBox="0 0 96 96" version="1.1">
<g id="surface1">
<path style=" stroke:none;fill-rule:nonzero;fill:rgb(49.411765%,7.45098%,97.254902%);fill-opacity:1;" d="M 19.941406 0 C 14.460938 0 10.410156 6.015625 10.589844 12.542969 C 10.765625 18.808594 10.539062 26.929688 8.910156 33.550781 C 7.277344 40.1875 4.511719 44.394531 0 44.933594 L 0 51.03125 C 4.511719 51.574219 7.277344 55.777344 8.910156 62.417969 C 10.539062 69.039062 10.765625 77.160156 10.589844 83.425781 C 10.410156 89.949219 14.460938 95.96875 19.941406 95.96875 L 76.066406 95.96875 C 81.546875 95.96875 85.597656 89.953125 85.417969 83.425781 C 85.242188 77.160156 85.46875 69.039062 87.097656 62.417969 C 88.730469 55.777344 91.488281 51.574219 96 51.03125 L 96 44.933594 C 91.488281 44.394531 88.730469 40.1875 87.097656 33.550781 C 85.46875 26.929688 85.242188 18.808594 85.417969 12.542969 C 85.597656 6.015625 81.546875 0 76.066406 0 L 19.9375 0 Z M 65.085938 59.074219 C 65.085938 68.058594 59.746094 73.507812 50.882812 73.507812 L 35.796875 73.507812 C 34.898438 73.507812 34.167969 72.59375 34.167969 71.464844 L 34.167969 24.503906 C 34.167969 23.375 34.898438 22.460938 35.796875 22.460938 L 50.796875 22.460938 C 58.1875 22.460938 63.035156 27.484375 63.035156 35.195312 C 63.035156 40.609375 59.773438 45.457031 55.617188 46.304688 L 55.617188 46.585938 C 61.273438 47.367188 65.085938 52.28125 65.085938 59.074219 Z M 49.238281 28.933594 L 40.636719 28.933594 L 40.636719 44.179688 L 47.878906 44.179688 C 53.480469 44.179688 56.570312 41.351562 56.570312 36.292969 C 56.570312 31.550781 53.914062 28.933594 49.238281 28.933594 Z M 40.636719 50.230469 L 40.636719 67.03125 L 49.554688 67.03125 C 55.382812 67.03125 58.472656 64.097656 58.472656 58.578125 C 58.472656 53.058594 55.296875 50.230469 49.179688 50.230469 Z M 40.636719 50.230469 "/>
</g>
</svg>
