<?xml version="1.0" encoding="UTF-8"?>
<svg xmlns="http://www.w3.org/2000/svg" xmlns:xlink="http://www.w3.org/1999/xlink" width="96px" height="96px" viewBox="0 0 96 96" version="1.1">
<g id="surface1">
<path style=" stroke:none;fill-rule:nonzero;fill:rgb(0%,32.941176%,41.960784%);fill-opacity:1;" d="M 88.367188 73.578125 C 83.148438 73.449219 79.105469 73.972656 75.710938 75.40625 C 74.730469 75.796875 73.167969 75.796875 73.035156 77.039062 C 73.558594 77.558594 73.621094 78.40625 74.078125 79.125 C 74.863281 80.429688 76.234375 82.191406 77.472656 83.105469 C 78.84375 84.148438 80.210938 85.191406 81.648438 86.105469 C 84.191406 87.671875 87.0625 88.585938 89.542969 90.152344 C 90.976562 91.0625 92.414062 92.238281 93.847656 93.21875 C 94.566406 93.738281 95.023438 94.589844 95.9375 94.914062 L 95.9375 94.71875 C 95.480469 94.132812 95.347656 93.28125 94.890625 92.628906 C 94.242188 91.976562 93.585938 91.390625 92.933594 90.738281 C 91.042969 88.195312 88.695312 85.976562 86.148438 84.148438 C 84.0625 82.714844 79.496094 80.757812 78.648438 78.34375 C 78.648438 78.34375 78.582031 78.277344 78.515625 78.210938 C 79.953125 78.082031 81.648438 77.558594 83.019531 77.167969 C 85.238281 76.582031 87.257812 76.710938 89.542969 76.125 C 90.585938 75.863281 91.628906 75.535156 92.675781 75.210938 L 92.675781 74.625 C 91.5 73.449219 90.652344 71.882812 89.410156 70.773438 C 86.085938 67.902344 82.429688 65.097656 78.648438 62.75 C 76.625 61.445312 74.015625 60.597656 71.863281 59.488281 C 71.078125 59.09375 69.773438 58.898438 69.316406 58.246094 C 68.140625 56.8125 67.488281 54.921875 66.640625 53.222656 C 64.75 49.636719 62.921875 45.65625 61.292969 41.871094 C 60.117188 39.328125 59.398438 36.78125 57.964844 34.433594 C 51.246094 23.34375 43.9375 16.621094 32.714844 10.035156 C 30.300781 8.664062 27.429688 8.074219 24.363281 7.359375 C 22.734375 7.292969 21.101562 7.164062 19.472656 7.097656 C 18.429688 6.640625 17.382812 5.402344 16.46875 4.8125 C 12.753906 2.464844 3.160156 -2.625 0.421875 4.097656 C -1.339844 8.335938 3.03125 12.511719 4.53125 14.664062 C 5.640625 16.167969 7.074219 17.863281 7.859375 19.558594 C 8.316406 20.667969 8.445312 21.84375 8.902344 23.015625 C 9.945312 25.886719 10.925781 29.085938 12.296875 31.757812 C 13.011719 33.128906 13.796875 34.566406 14.710938 35.804688 C 15.230469 36.523438 16.144531 36.847656 16.339844 38.023438 C 15.425781 39.328125 15.363281 41.285156 14.839844 42.914062 C 12.492188 50.289062 13.402344 59.421875 16.730469 64.835938 C 17.773438 66.46875 20.253906 70.058594 23.582031 68.6875 C 26.519531 67.511719 25.867188 63.792969 26.714844 60.53125 C 26.910156 59.746094 26.777344 59.226562 27.171875 58.703125 C 27.171875 58.769531 27.171875 58.835938 27.171875 58.835938 C 28.082031 60.660156 28.996094 62.421875 29.84375 64.25 C 31.867188 67.445312 35.390625 70.773438 38.328125 72.992188 C 39.894531 74.167969 41.132812 76.191406 43.089844 76.90625 L 43.089844 76.710938 L 42.960938 76.710938 C 42.566406 76.125 41.980469 75.863281 41.457031 75.40625 C 40.285156 74.230469 38.980469 72.796875 38.066406 71.492188 C 35.324219 67.839844 32.910156 63.792969 30.757812 59.617188 C 29.714844 57.59375 28.800781 55.375 27.953125 53.355469 C 27.5625 52.570312 27.5625 51.398438 26.910156 51.007812 C 25.929688 52.441406 24.496094 53.679688 23.777344 55.441406 C 22.539062 58.246094 22.40625 61.707031 21.949219 65.292969 C 21.691406 65.359375 21.820312 65.292969 21.691406 65.425781 C 19.601562 64.902344 18.882812 62.75 18.101562 60.921875 C 16.144531 56.289062 15.816406 48.851562 17.515625 43.503906 C 17.972656 42.132812 19.929688 37.828125 19.144531 36.523438 C 18.753906 35.28125 17.449219 34.566406 16.730469 33.585938 C 15.882812 32.347656 14.96875 30.78125 14.382812 29.410156 C 12.816406 25.757812 12.035156 21.710938 10.335938 18.058594 C 9.554688 16.363281 8.183594 14.601562 7.074219 13.035156 C 5.835938 11.273438 4.464844 10.035156 3.488281 7.945312 C 3.160156 7.226562 2.703125 6.054688 3.226562 5.269531 C 3.355469 4.75 3.617188 4.554688 4.140625 4.421875 C 4.988281 3.703125 7.402344 4.617188 8.25 5.007812 C 10.664062 5.988281 12.6875 6.902344 14.710938 8.273438 C 15.621094 8.925781 16.601562 10.164062 17.773438 10.488281 L 19.144531 10.488281 C 21.234375 10.945312 23.582031 10.621094 25.539062 11.207031 C 28.996094 12.316406 32.128906 13.949219 34.933594 15.710938 C 43.480469 21.125 50.527344 28.824219 55.289062 38.023438 C 56.074219 39.523438 56.398438 40.894531 57.117188 42.457031 C 58.488281 45.65625 60.183594 48.917969 61.554688 52.050781 C 62.921875 55.117188 64.226562 58.246094 66.183594 60.792969 C 67.164062 62.160156 71.078125 62.878906 72.839844 63.597656 C 74.144531 64.183594 76.167969 64.707031 77.34375 65.425781 C 79.558594 66.792969 81.777344 68.359375 83.867188 69.859375 C 84.910156 70.644531 88.171875 72.273438 88.367188 73.578125 Z M 88.367188 73.578125 "/>
<path style=" stroke:none;fill-rule:nonzero;fill:rgb(0%,32.941176%,41.960784%);fill-opacity:1;" d="M 21.820312 16.882812 C 20.710938 16.882812 19.929688 17.015625 19.144531 17.210938 C 19.144531 17.210938 19.144531 17.277344 19.144531 17.339844 L 19.277344 17.339844 C 19.796875 18.382812 20.710938 19.101562 21.363281 20.015625 C 21.886719 21.058594 22.339844 22.101562 22.863281 23.148438 C 22.929688 23.082031 22.996094 23.015625 22.996094 23.015625 C 23.90625 22.363281 24.363281 21.320312 24.363281 19.753906 C 23.972656 19.296875 23.90625 18.839844 23.582031 18.382812 C 23.191406 17.730469 22.339844 17.40625 21.820312 16.882812 Z M 21.820312 16.882812 "/>
</g>
</svg>
