<?xml version="1.0" encoding="UTF-8"?>
<svg xmlns="http://www.w3.org/2000/svg" xmlns:xlink="http://www.w3.org/1999/xlink" width="96px" height="96px" viewBox="0 0 96 96" version="1.1">
<g id="surface1">
<path style=" stroke:none;fill-rule:nonzero;fill:rgb(0%,37.254902%,5.882353%);fill-opacity:1;" d="M 0 0 L 96 0 L 96 95.789062 L 0 95.789062 Z M 0 0 "/>
<path style=" stroke:none;fill-rule:nonzero;fill:rgb(100%,100%,100%);fill-opacity:1;" d="M 81.820312 13.0625 C 69.996094 27.492188 55.558594 39.578125 40.160156 50.058594 C 35.15625 53.625 29.628906 56.804688 25.78125 61.691406 C 24.308594 64.261719 23.957031 67.886719 26.46875 69.972656 C 30.652344 73.902344 37.171875 74.757812 42.414062 72.558594 C 49.753906 69.773438 54.824219 63.433594 59.085938 57.148438 C 68.597656 43.5 74.363281 27.804688 81.820312 13.0625 Z M 81.820312 13.0625 "/>
<path style=" stroke:none;fill-rule:nonzero;fill:rgb(68.235294%,66.27451%,62.352941%);fill-opacity:1;" d="M 75.039062 18.050781 C 60.320312 29.667969 48.542969 35.949219 33.488281 41.347656 C 28.945312 43.285156 24.078125 45.742188 21.964844 50.496094 C 19.792969 54.992188 20.503906 61.261719 23 65.421875 C 22.8125 63.671875 23.753906 60.839844 25.148438 59.511719 C 29.789062 54.363281 35.832031 50.992188 41.148438 47.082031 L 41.160156 47.070312 L 41.175781 47.0625 C 53.476562 38.648438 65.011719 29.03125 75.039062 18.050781 Z M 75.039062 18.050781 "/>
</g>
</svg>
